<svg width="259" height="141" viewBox="0 0 259 141" version="1.1" xmlns="http://www.w3.org/2000/svg" xmlns:xlink="http://www.w3.org/1999/xlink">
<title>Page 1</title>
<desc>Created using Figma</desc>
<g id="Canvas" transform="translate(1919 4271)">
<g id="Page 1" filter="url(#filter0_d)">
<g id="Yalla">
<use xlink:href="#path0_fill" transform="translate(-1896 -4258)" fill="#FFFFFF"/>
</g>
<g id="pour les enfants">
<use xlink:href="#path1_fill" transform="translate(-1885 -4186)" fill="#FFFFFF"/>
</g>
<g id="Fill 2">
<use xlink:href="#path2_fill" transform="translate(-1880 -4246)" fill="#FA0023"/>
</g>
</g>
</g>
<defs>
<filter id="filter0_d" filterUnits="userSpaceOnUse" x="-1919" y="-4271" width="259" height="141" color-interpolation-filters="sRGB">
<feFlood flood-opacity="0" result="BackgroundImageFix"/>
<feColorMatrix in="SourceAlpha" type="matrix" values="0 0 0 0 0 0 0 0 0 0 0 0 0 0 0 0 0 0 255 0"/>
<feOffset dx="0" dy="0"/>
<feGaussianBlur stdDeviation="12.5"/>
<feColorMatrix type="matrix" values="0 0 0 0 0 0 0 0 0 0 0 0 0 0 0 0 0 0 0.5 0"/>
<feBlend mode="normal" in2="BackgroundImageFix" result="effect1_dropShadow"/>
<feBlend mode="normal" in="SourceGraphic" in2="effect1_dropShadow" result="shape"/>
</filter>
<path id="path0_fill" d="M 4.375 85C 3.75 83.4375 3.67188 81.7969 4.14062 80.0781C 4.60938 78.3594 5.36458 76.5625 6.40625 74.6875C 7.44792 72.7604 8.67188 70.7812 10.0781 68.75C 11.4844 66.7188 12.8125 64.6354 14.0625 62.5C 15.3125 60.3125 16.3542 58.0729 17.1875 55.7812C 18.0208 53.4896 18.4375 51.1719 18.4375 48.8281C 18.2292 48.3594 17.7604 47.5781 17.0312 46.4844C 16.3021 45.3385 15.4427 44.0365 14.4531 42.5781C 13.4635 41.0677 12.3958 39.4531 11.25 37.7344C 10.1042 36.0156 8.98438 34.349 7.89062 32.7344C 6.84896 31.0677 5.88542 29.5052 5 28.0469C 4.16667 26.5365 3.54167 25.2865 3.125 24.2969C 2.70833 23.3073 2.57812 22.6302 2.73438 22.2656C 2.89062 21.849 3.4375 21.875 4.375 22.3438C 5.10417 23.0208 6.01562 24.1146 7.10938 25.625C 8.20312 27.0833 9.32292 28.75 10.4688 30.625C 11.6667 32.4479 12.8646 34.349 14.0625 36.3281C 15.3125 38.2552 16.4583 40 17.5 41.5625C 18.5417 43.0729 19.4531 44.2969 20.2344 45.2344C 21.0156 46.1198 21.5885 46.4323 21.9531 46.1719C 22.474 45.1302 23.2292 43.4896 24.2188 41.25C 25.2604 38.9583 26.3802 36.4844 27.5781 33.8281C 28.776 31.1198 30 28.4375 31.25 25.7812C 32.5521 23.0729 33.75 20.7812 34.8438 18.9062C 35.9896 17.0312 36.9792 15.7812 37.8125 15.1562C 38.6979 14.4792 39.2969 14.8177 39.6094 16.1719C 39.8177 16.9531 39.5833 18.3333 38.9062 20.3125C 38.2292 22.2396 37.2656 24.5833 36.0156 27.3438C 34.7656 30.0521 33.2812 33.099 31.5625 36.4844C 29.8958 39.8177 28.125 43.2812 26.25 46.875C 24.4271 50.4688 22.5781 54.0885 20.7031 57.7344C 18.8802 61.3281 17.1615 64.7917 15.5469 68.125C 13.9323 71.4062 12.526 74.4271 11.3281 77.1875C 10.1302 79.9479 9.27083 82.2656 8.75 84.1406C 8.59375 84.6615 8.33333 85.1562 7.96875 85.625C 7.65625 86.1458 7.29167 86.5104 6.875 86.7188C 6.45833 86.9271 6.01562 86.901 5.54688 86.6406C 5.13021 86.4323 4.73958 85.8854 4.375 85ZM 35.8594 73.2031C 34.6094 72.1615 33.9062 70.625 33.75 68.5938C 33.6458 66.5625 33.9323 64.2708 34.6094 61.7188C 35.3385 59.1667 36.3802 56.5104 37.7344 53.75C 39.1406 50.9375 40.7552 48.2812 42.5781 45.7812C 44.401 43.2292 46.3802 40.9635 48.5156 38.9844C 50.651 36.9531 52.7865 35.4688 54.9219 34.5312C 57.0573 33.5417 59.1406 33.2031 61.1719 33.5156C 63.2031 33.776 65.0521 34.9479 66.7188 37.0312C 67.7604 38.3333 68.3854 39.6615 68.5938 41.0156C 68.8021 42.3177 68.776 43.6719 68.5156 45.0781C 68.2552 46.4323 67.8385 47.8385 67.2656 49.2969C 66.6927 50.7031 66.1198 52.1354 65.5469 53.5938C 65.026 55.0521 64.5833 56.5365 64.2188 58.0469C 63.9062 59.5573 63.8542 61.0938 64.0625 62.6562C 64.3229 64.6354 65.2083 65.8073 66.7188 66.1719C 68.2292 66.5365 70.026 66.4323 72.1094 65.8594C 74.2448 65.2865 76.4844 64.375 78.8281 63.125C 81.1719 61.875 83.3333 60.625 85.3125 59.375C 87.3438 58.125 89.0104 57.0312 90.3125 56.0938C 91.6667 55.1562 92.3438 54.6875 92.3438 54.6875C 93.8021 54.375 94.6094 54.4792 94.7656 55C 94.974 55.4688 94.6875 56.1979 93.9062 57.1875C 93.1771 58.125 92.0573 59.2188 90.5469 60.4688C 89.0365 61.6667 87.3177 62.8385 85.3906 63.9844C 83.4635 65.1302 81.4062 66.1719 79.2188 67.1094C 77.0312 68.0469 74.8958 68.6979 72.8125 69.0625C 70.7292 69.375 68.75 69.349 66.875 68.9844C 65.0521 68.5677 63.5417 67.6302 62.3438 66.1719C 61.7708 65.5469 61.3281 64.9219 61.0156 64.2969C 60.7552 63.6719 60.3125 63.125 59.6875 62.6562C 58.9062 63.3854 57.9688 64.349 56.875 65.5469C 55.7812 66.6927 54.5833 67.8646 53.2812 69.0625C 52.0312 70.2083 50.6771 71.3021 49.2188 72.3438C 47.8125 73.3854 46.3542 74.1667 44.8438 74.6875C 43.3333 75.2083 41.7969 75.3906 40.2344 75.2344C 38.724 75.0781 37.2656 74.401 35.8594 73.2031ZM 36.7188 70.5469C 37.1875 72.2135 38.2292 72.9948 39.8438 72.8906C 41.4583 72.7344 43.3333 71.9271 45.4688 70.4688C 47.6042 69.0104 49.8177 67.0312 52.1094 64.5312C 54.401 61.9792 56.4583 59.1667 58.2812 56.0938C 60.1042 52.9688 61.4844 49.6875 62.4219 46.25C 63.4115 42.8125 63.6719 39.4271 63.2031 36.0938C 61.9531 35.1042 60.3906 35.0781 58.5156 36.0156C 56.6406 36.901 54.6354 38.3854 52.5 40.4688C 50.4167 42.5 48.3333 44.9479 46.25 47.8125C 44.2188 50.625 42.4219 53.4896 40.8594 56.4062C 39.2969 59.2708 38.099 61.9792 37.2656 64.5312C 36.4844 67.0833 36.3021 69.0885 36.7188 70.5469ZM 90.6328 74.1406C 89.1224 73.0469 88.1328 71.6667 87.664 70C 87.2474 68.3333 87.1953 66.5365 87.5078 64.6094C 87.8203 62.6302 88.3672 60.599 89.1484 58.5156C 89.9817 56.4323 90.8672 54.4271 91.8047 52.5C 92.7942 50.5729 93.7317 48.8021 94.6172 47.1875C 95.5547 45.5729 96.2838 44.2448 96.8047 43.2031C 96.9609 42.8906 97.3255 42.1354 97.8984 40.9375C 98.5234 39.7396 99.1744 38.4375 99.8515 37.0312C 100.529 35.625 101.154 34.3229 101.727 33.125C 102.352 31.875 102.742 31.0938 102.898 30.7812C 103.055 30.5208 103.263 30.026 103.523 29.2969C 103.836 28.5156 104.174 27.6823 104.539 26.7969C 104.904 25.9115 105.294 25.0781 105.711 24.2969C 106.18 23.4635 106.648 22.8646 107.117 22.5C 107.638 22.1354 108.133 22.0833 108.602 22.3438C 109.122 22.6042 109.617 23.3854 110.086 24.6875C 109.878 25.2083 109.357 26.25 108.523 27.8125C 107.742 29.375 106.805 31.25 105.711 33.4375C 104.617 35.625 103.393 38.0469 102.039 40.7031C 100.737 43.3594 99.4609 46.0417 98.2109 48.75C 96.9609 51.4583 95.789 54.1146 94.6953 56.7188C 93.6015 59.2708 92.6901 61.6146 91.9609 63.75C 91.2838 65.8333 90.8672 67.5781 90.7109 68.9844C 90.6067 70.3385 90.8672 71.1719 91.4922 71.4844C 92.2213 71.849 93.1588 72.0052 94.3047 71.9531C 95.5026 71.849 96.7265 71.6927 97.9765 71.4844C 99.2265 71.276 100.45 71.0677 101.648 70.8594C 102.846 70.599 103.888 70.4948 104.773 70.5469C 104.982 71.0156 104.825 71.4844 104.305 71.9531C 103.784 72.3698 103.055 72.7604 102.117 73.125C 101.18 73.4375 100.086 73.724 98.8359 73.9844C 97.638 74.1927 96.4661 74.349 95.3203 74.4531C 94.2265 74.5573 93.2369 74.5833 92.3515 74.5312C 91.5182 74.4792 90.9453 74.349 90.6328 74.1406ZM 116.258 74.1406C 114.747 73.0469 113.758 71.6667 113.289 70C 112.872 68.3333 112.82 66.5365 113.133 64.6094C 113.445 62.6302 113.992 60.599 114.773 58.5156C 115.607 56.4323 116.492 54.4271 117.43 52.5C 118.419 50.5729 119.357 48.8021 120.242 47.1875C 121.18 45.5729 121.909 44.2448 122.43 43.2031C 122.586 42.8906 122.95 42.1354 123.523 40.9375C 124.148 39.7396 124.799 38.4375 125.477 37.0312C 126.154 35.625 126.779 34.3229 127.352 33.125C 127.977 31.875 128.367 31.0938 128.523 30.7812C 128.68 30.5208 128.888 30.026 129.148 29.2969C 129.461 28.5156 129.799 27.6823 130.164 26.7969C 130.529 25.9115 130.919 25.0781 131.336 24.2969C 131.805 23.4635 132.273 22.8646 132.742 22.5C 133.263 22.1354 133.758 22.0833 134.227 22.3438C 134.747 22.6042 135.242 23.3854 135.711 24.6875C 135.503 25.2083 134.982 26.25 134.148 27.8125C 133.367 29.375 132.43 31.25 131.336 33.4375C 130.242 35.625 129.018 38.0469 127.664 40.7031C 126.362 43.3594 125.086 46.0417 123.836 48.75C 122.586 51.4583 121.414 54.1146 120.32 56.7188C 119.227 59.2708 118.315 61.6146 117.586 63.75C 116.909 65.8333 116.492 67.5781 116.336 68.9844C 116.232 70.3385 116.492 71.1719 117.117 71.4844C 117.846 71.849 118.784 72.0052 119.93 71.9531C 121.128 71.849 122.352 71.6927 123.602 71.4844C 124.852 71.276 126.075 71.0677 127.273 70.8594C 128.471 70.599 129.513 70.4948 130.398 70.5469C 130.607 71.0156 130.45 71.4844 129.93 71.9531C 129.409 72.3698 128.68 72.7604 127.742 73.125C 126.805 73.4375 125.711 73.724 124.461 73.9844C 123.263 74.1927 122.091 74.349 120.945 74.4531C 119.852 74.5573 118.862 74.5833 117.977 74.5312C 117.143 74.4792 116.57 74.349 116.258 74.1406ZM 141.883 73.2031C 140.633 72.1615 139.93 70.625 139.773 68.5938C 139.669 66.5625 139.956 64.2708 140.633 61.7188C 141.362 59.1667 142.404 56.5104 143.758 53.75C 145.164 50.9375 146.779 48.2812 148.602 45.7812C 150.424 43.2292 152.404 40.9635 154.539 38.9844C 156.674 36.9531 158.81 35.4688 160.945 34.5312C 163.081 33.5417 165.164 33.2031 167.195 33.5156C 169.227 33.776 171.075 34.9479 172.742 37.0312C 173.784 38.3333 174.409 39.6615 174.617 41.0156C 174.825 42.3177 174.799 43.6719 174.539 45.0781C 174.279 46.4323 173.862 47.8385 173.289 49.2969C 172.716 50.7031 172.143 52.1354 171.57 53.5938C 171.049 55.0521 170.607 56.5365 170.242 58.0469C 169.93 59.5573 169.878 61.0938 170.086 62.6562C 170.346 64.6354 171.232 65.8073 172.742 66.1719C 174.253 66.5365 176.049 66.4323 178.133 65.8594C 180.268 65.2865 182.508 64.375 184.852 63.125C 187.195 61.875 189.357 60.625 191.336 59.375C 193.367 58.125 195.034 57.0312 196.336 56.0938C 197.69 55.1562 198.367 54.6875 198.367 54.6875C 199.825 54.375 200.633 54.4792 200.789 55C 200.997 55.4688 200.711 56.1979 199.93 57.1875C 199.2 58.125 198.081 59.2188 196.57 60.4688C 195.06 61.6667 193.341 62.8385 191.414 63.9844C 189.487 65.1302 187.43 66.1719 185.242 67.1094C 183.055 68.0469 180.919 68.6979 178.836 69.0625C 176.753 69.375 174.773 69.349 172.898 68.9844C 171.075 68.5677 169.565 67.6302 168.367 66.1719C 167.794 65.5469 167.352 64.9219 167.039 64.2969C 166.779 63.6719 166.336 63.125 165.711 62.6562C 164.93 63.3854 163.992 64.349 162.898 65.5469C 161.805 66.6927 160.607 67.8646 159.305 69.0625C 158.055 70.2083 156.7 71.3021 155.242 72.3438C 153.836 73.3854 152.378 74.1667 150.867 74.6875C 149.357 75.2083 147.82 75.3906 146.258 75.2344C 144.747 75.0781 143.289 74.401 141.883 73.2031ZM 142.742 70.5469C 143.211 72.2135 144.253 72.9948 145.867 72.8906C 147.482 72.7344 149.357 71.9271 151.492 70.4688C 153.628 69.0104 155.841 67.0312 158.133 64.5312C 160.424 61.9792 162.482 59.1667 164.305 56.0938C 166.128 52.9688 167.508 49.6875 168.445 46.25C 169.435 42.8125 169.695 39.4271 169.227 36.0938C 167.977 35.1042 166.414 35.0781 164.539 36.0156C 162.664 36.901 160.659 38.3854 158.523 40.4688C 156.44 42.5 154.357 44.9479 152.273 47.8125C 150.242 50.625 148.445 53.4896 146.883 56.4062C 145.32 59.2708 144.122 61.9792 143.289 64.5312C 142.508 67.0833 142.325 69.0885 142.742 70.5469ZM 193.133 73.2031C 192.716 72.5781 192.664 71.901 192.977 71.1719C 193.341 70.4427 193.836 69.8438 194.461 69.375C 195.086 68.8542 195.711 68.5938 196.336 68.5938C 196.961 68.5417 197.378 68.9062 197.586 69.6875C 197.794 70.4688 197.794 71.276 197.586 72.1094C 197.43 72.9427 197.117 73.6198 196.648 74.1406C 196.232 74.6615 195.711 74.8958 195.086 74.8438C 194.461 74.7917 193.81 74.2448 193.133 73.2031ZM 197.586 51.1719C 197.482 50.8594 197.534 50.0781 197.742 48.8281C 197.95 47.5781 198.263 46.0677 198.68 44.2969C 199.096 42.474 199.617 40.4688 200.242 38.2812C 200.867 36.0938 201.544 33.9062 202.273 31.7188C 203.003 29.5312 203.758 27.4219 204.539 25.3906C 205.32 23.3594 206.075 21.5885 206.805 20.0781C 207.586 18.5677 208.315 17.4219 208.992 16.6406C 209.721 15.8594 210.372 15.599 210.945 15.8594C 210.997 16.1198 210.893 17.0052 210.633 18.5156C 210.424 19.974 210.086 21.7969 209.617 23.9844C 209.148 26.1198 208.575 28.4896 207.898 31.0938C 207.273 33.6979 206.596 36.25 205.867 38.75C 205.19 41.25 204.461 43.5938 203.68 45.7812C 202.898 47.9167 202.143 49.6354 201.414 50.9375C 200.685 52.2396 199.982 52.9688 199.305 53.125C 198.628 53.2812 198.055 52.6302 197.586 51.1719Z"/>
<path id="path1_fill" d="M 1.25 29.2812C 1.20833 29.2396 1.1875 29.125 1.1875 28.9375C 1.1875 28.75 1.20833 28.6354 1.25 28.5938L 3.875 22.5625L 0.90625 22.5625C 0.84375 22.5625 0.78125 22.5208 0.71875 22.4375C 0.677083 22.3542 0.635417 22.2604 0.59375 22.1562C 0.572917 22.0312 0.552083 21.9167 0.53125 21.8125C 0.510417 21.6875 0.520833 21.5938 0.5625 21.5312C 0.625 21.5104 0.739583 21.4688 0.90625 21.4062C 1.07292 21.3438 1.25 21.2708 1.4375 21.1875C 1.625 21.1042 1.80208 21.0312 1.96875 20.9688C 2.13542 20.9062 2.25 20.8542 2.3125 20.8125C 2.375 20.7917 2.54167 20.7292 2.8125 20.625C 3.10417 20.5208 3.40625 20.4167 3.71875 20.3125C 4.05208 20.1875 4.35417 20.0729 4.625 19.9688C 4.89583 19.8646 5.0625 19.7917 5.125 19.75C 5.375 19.5833 5.66667 19.1771 6 18.5312C 6.35417 17.8646 6.75 17.0729 7.1875 16.1562C 7.625 15.2396 8.10417 14.2604 8.625 13.2188C 9.14583 12.1562 9.70833 11.1458 10.3125 10.1875C 10.9167 9.20833 11.5521 8.34375 12.2188 7.59375C 12.8854 6.82292 13.5729 6.28125 14.2812 5.96875C 15.0104 5.63542 15.7604 5.58333 16.5312 5.8125C 17.3021 6.04167 18.0938 6.65625 18.9062 7.65625C 19.0521 7.86458 19.1562 8.09375 19.2188 8.34375C 19.2812 8.57292 19.2917 8.8125 19.25 9.0625C 19.0625 9.16667 18.875 9.1875 18.6875 9.125C 18.5 9.0625 18.3229 8.95833 18.1562 8.8125C 18.0104 8.66667 17.875 8.52083 17.75 8.375C 17.625 8.20833 17.5417 8.08333 17.5 8C 16.1042 7.77083 14.9896 7.83333 14.1562 8.1875C 13.3438 8.52083 12.6667 9.04167 12.125 9.75C 11.6042 10.4375 11.1458 11.2604 10.75 12.2188C 10.3542 13.1771 9.89583 14.1667 9.375 15.1875C 9.22917 15.4375 9.05208 15.7604 8.84375 16.1562C 8.65625 16.5521 8.46875 16.9375 8.28125 17.3125C 8.09375 17.6875 7.92708 18.0104 7.78125 18.2812C 7.65625 18.5521 7.59375 18.6875 7.59375 18.6875L 7.59375 19.0625C 7.59375 19.1458 7.85417 19.2083 8.375 19.25C 8.89583 19.2917 9.47917 19.3542 10.125 19.4375C 10.7917 19.5208 11.4271 19.6458 12.0312 19.8125C 12.6562 19.9583 13.0625 20.1771 13.25 20.4688L 12.9062 20.8125C 11.7188 20.75 10.7188 20.7292 9.90625 20.75C 9.09375 20.7708 8.38542 20.9062 7.78125 21.1562C 7.17708 21.4062 6.64583 21.8125 6.1875 22.375C 5.72917 22.9167 5.26042 23.6875 4.78125 24.6875C 4.61458 25.0417 4.39583 25.5 4.125 26.0625C 3.85417 26.6042 3.58333 27.1458 3.3125 27.6875C 3.04167 28.2083 2.8125 28.6667 2.625 29.0625C 2.4375 29.4375 2.33333 29.6354 2.3125 29.6562L 1.9375 30C 1.875 29.9583 1.75 29.8542 1.5625 29.6875C 1.39583 29.5 1.29167 29.3646 1.25 29.2812ZM 17.1562 29.6562C 16.2812 29.3021 15.7292 28.7708 15.5 28.0625C 15.2917 27.3542 15.3021 26.5729 15.5312 25.7188C 15.7604 24.8438 16.1562 23.9479 16.7188 23.0312C 17.2812 22.0938 17.9062 21.2396 18.5938 20.4688C 19.2812 19.6979 19.9688 19.0521 20.6562 18.5312C 21.3646 17.9896 21.9688 17.6875 22.4688 17.625C 23.7604 17.4583 24.7708 17.5521 25.5 17.9062C 26.25 18.2396 26.7604 18.7292 27.0312 19.375C 27.3021 20.0208 27.375 20.7812 27.25 21.6562C 27.125 22.5104 26.8438 23.375 26.4062 24.25C 25.9896 25.125 25.4375 25.9688 24.75 26.7812C 24.0833 27.5938 23.3333 28.2812 22.5 28.8438C 21.6875 29.3854 20.8229 29.75 19.9062 29.9375C 18.9896 30.1042 18.0729 30.0104 17.1562 29.6562ZM 16.8125 27.875C 16.9792 28.5417 17.3333 28.9167 17.875 29C 18.4167 29.0625 19.0417 28.9271 19.75 28.5938C 20.4792 28.2396 21.2396 27.7396 22.0312 27.0938C 22.8229 26.4271 23.5417 25.7083 24.1875 24.9375C 24.8542 24.1667 25.3958 23.3958 25.8125 22.625C 26.25 21.8333 26.4583 21.1458 26.4375 20.5625C 26.4375 19.9792 26.1562 19.5417 25.5938 19.25C 25.0521 18.9375 24.1354 18.875 22.8438 19.0625C 22.5521 19.3333 22.1771 19.6667 21.7188 20.0625C 21.2604 20.4375 20.7812 20.8542 20.2812 21.3125C 19.8021 21.7708 19.3229 22.2708 18.8438 22.8125C 18.3646 23.3333 17.9479 23.875 17.5938 24.4375C 17.2396 25 16.9792 25.5729 16.8125 26.1562C 16.6667 26.7396 16.6667 27.3125 16.8125 27.875ZM 29.0312 29.6562C 28.9896 29.6354 28.9896 29.3958 29.0312 28.9375C 29.0938 28.4583 29.1771 27.8646 29.2812 27.1562C 29.3854 26.4479 29.5208 25.6667 29.6875 24.8125C 29.8542 23.9583 30.0312 23.1458 30.2188 22.375C 30.4062 21.5833 30.6042 20.8958 30.8125 20.3125C 31.0417 19.7083 31.2604 19.2917 31.4688 19.0625C 31.6146 18.9167 31.7604 18.9167 31.9062 19.0625C 32.0521 19.1875 32.1979 19.3542 32.3438 19.5625C 32.4896 19.75 32.6354 19.9271 32.7812 20.0938C 32.9271 20.2396 33.0833 20.25 33.25 20.125C 33.8333 19.3125 34.4688 18.5417 35.1562 17.8125C 35.8646 17.0625 36.6458 16.4167 37.5 15.875C 37.5833 15.8125 37.8125 15.7188 38.1875 15.5938C 38.5625 15.4479 38.9896 15.3125 39.4688 15.1875C 39.9479 15.0417 40.4375 14.9271 40.9375 14.8438C 41.4583 14.7396 41.8958 14.6979 42.25 14.7188C 42.625 14.7188 42.875 14.8125 43 15C 43.1458 15.1667 43.0833 15.4583 42.8125 15.875C 41.5625 15.8958 40.3958 16.2604 39.3125 16.9688C 38.2292 17.6771 37.2292 18.5521 36.3125 19.5938C 35.3958 20.6354 34.5625 21.7708 33.8125 23C 33.0625 24.2083 32.4062 25.3333 31.8438 26.375C 31.3021 27.4167 30.8438 28.2812 30.4688 28.9688C 30.1146 29.6562 29.8542 30 29.6875 30C 29.6667 30 29.5729 29.9583 29.4062 29.875C 29.2396 29.7708 29.1146 29.6979 29.0312 29.6562ZM 63.3125 29.6562C 62.25 29.3021 61.5417 28.75 61.1875 28C 60.8542 27.25 60.7604 26.4062 60.9062 25.4688C 61.0729 24.5104 61.4375 23.5104 62 22.4688C 62.5625 21.4062 63.2292 20.3958 64 19.4375C 64.7708 18.4792 65.5833 17.6146 66.4375 16.8438C 67.2917 16.0729 68.0938 15.4896 68.8438 15.0938C 69.6146 14.6979 70.2708 14.5417 70.8125 14.625C 71.3542 14.7083 71.6875 15.125 71.8125 15.875C 71.875 16.2083 71.8333 16.5729 71.6875 16.9688C 71.5625 17.3646 71.375 17.75 71.125 18.125C 70.8958 18.4792 70.625 18.8125 70.3125 19.125C 70.0208 19.4167 69.7292 19.6354 69.4375 19.7812C 69.1667 19.9271 68.9167 19.9792 68.6875 19.9375C 68.4792 19.8958 68.3438 19.7188 68.2812 19.4062C 68.5312 18.9896 68.8125 18.5729 69.125 18.1562C 69.4375 17.7188 69.7396 17.3125 70.0312 16.9375C 69.9062 16.7083 69.6667 16.6562 69.3125 16.7812C 68.9583 16.9062 68.5312 17.1562 68.0312 17.5312C 67.5312 17.9062 67 18.3854 66.4375 18.9688C 65.8958 19.5312 65.3646 20.1458 64.8438 20.8125C 64.3229 21.4792 63.8542 22.1771 63.4375 22.9062C 63.0417 23.6146 62.75 24.3021 62.5625 24.9688C 62.375 25.6354 62.3229 26.2604 62.4062 26.8438C 62.5104 27.4062 62.8125 27.8646 63.3125 28.2188C 64 28.2812 64.7917 28.2188 65.6875 28.0312C 66.5833 27.8229 67.5 27.5625 68.4375 27.25C 69.375 26.9375 70.3021 26.6042 71.2188 26.25C 72.1562 25.875 73 25.5312 73.75 25.2188C 74.5208 24.9062 75.1667 24.6667 75.6875 24.5C 76.2292 24.3125 76.5833 24.2604 76.75 24.3438C 77.1458 24.5521 77.1667 24.8542 76.8125 25.25C 76.4792 25.6458 75.9062 26.0729 75.0938 26.5312C 74.2812 26.9896 73.3125 27.4479 72.1875 27.9062C 71.0833 28.3438 69.9688 28.7292 68.8438 29.0625C 67.7188 29.375 66.6562 29.6042 65.6562 29.75C 64.6562 29.875 63.875 29.8438 63.3125 29.6562ZM 77.9375 29.2812C 77.9167 29.2396 77.9062 29.1875 77.9062 29.125C 77.9062 29.0417 77.9167 28.9792 77.9375 28.9375C 78.0208 28.7708 78.1562 28.4896 78.3438 28.0938C 78.5521 27.6771 78.7604 27.25 78.9688 26.8125C 79.1979 26.3542 79.4167 25.9271 79.625 25.5312C 79.8333 25.1354 79.9792 24.8542 80.0625 24.6875C 80.1042 24.625 80.2083 24.4479 80.375 24.1562C 80.5625 23.8646 80.7812 23.5104 81.0312 23.0938C 81.3021 22.6562 81.5833 22.1771 81.875 21.6562C 82.1875 21.1354 82.4896 20.625 82.7812 20.125C 83.0938 19.625 83.375 19.1562 83.625 18.7188C 83.8958 18.2812 84.1146 17.9167 84.2812 17.625C 84.6979 16.9375 85.1771 16.125 85.7188 15.1875C 86.2812 14.25 86.8542 13.3021 87.4375 12.3438C 88.0208 11.3854 88.5938 10.4583 89.1562 9.5625C 89.7396 8.66667 90.2708 7.92708 90.75 7.34375C 91.2292 6.76042 91.6354 6.375 91.9688 6.1875C 92.3021 6 92.5312 6.125 92.6562 6.5625L 92.6562 7.5625C 92.5104 7.79167 92.3125 8.09375 92.0625 8.46875C 91.8125 8.82292 91.5521 9.20833 91.2812 9.625C 91.0312 10.0208 90.7812 10.4062 90.5312 10.7812C 90.2812 11.1562 90.0938 11.4479 89.9688 11.6562C 89.7812 11.9479 89.4792 12.4167 89.0625 13.0625C 88.6458 13.7083 88.1771 14.4375 87.6562 15.25C 87.1354 16.0625 86.6042 16.9167 86.0625 17.8125C 85.5208 18.6875 85.0312 19.5104 84.5938 20.2812C 84.1562 21.0521 83.8021 21.7188 83.5312 22.2812C 83.2812 22.8229 83.1875 23.1667 83.25 23.3125C 83.75 23.1667 84.2812 22.9062 84.8438 22.5312C 85.4271 22.1354 86.0104 21.7188 86.5938 21.2812C 87.1771 20.8438 87.7604 20.4271 88.3438 20.0312C 88.9271 19.6146 89.4688 19.2917 89.9688 19.0625C 90.4688 19.125 90.9062 19.3125 91.2812 19.625C 91.6562 19.9375 91.9271 20.3333 92.0938 20.8125C 92.0729 21 92.0521 21.3542 92.0312 21.875C 92.0312 22.375 92.0312 22.9062 92.0312 23.4688C 92.0312 24.0312 92.0312 24.5625 92.0312 25.0625C 92.0521 25.5625 92.0729 25.9062 92.0938 26.0938C 92.1146 26.3229 92.2188 26.6146 92.4062 26.9688C 92.5938 27.3021 92.7917 27.6458 93 28C 93.2292 28.3333 93.4271 28.625 93.5938 28.875C 93.7812 29.125 93.8646 29.2604 93.8438 29.2812C 93.4271 29.4271 93.0312 29.4375 92.6562 29.3125C 92.2812 29.1667 91.9479 28.9479 91.6562 28.6562C 91.3854 28.3438 91.1562 28 90.9688 27.625C 90.8021 27.2292 90.6979 26.8438 90.6562 26.4688C 90.6354 26.2812 90.6042 25.9375 90.5625 25.4375C 90.5208 24.9167 90.4792 24.375 90.4375 23.8125C 90.4167 23.25 90.3854 22.7188 90.3438 22.2188C 90.3229 21.7188 90.3125 21.375 90.3125 21.1875L 89.5938 20.8125C 89.4688 20.75 89.25 20.8021 88.9375 20.9688C 88.6458 21.1354 88.3021 21.3646 87.9062 21.6562C 87.5104 21.9479 87.0938 22.2812 86.6562 22.6562C 86.2188 23.0312 85.8021 23.3854 85.4062 23.7188C 85.0312 24.0521 84.7083 24.3438 84.4375 24.5938C 84.1667 24.8438 84 25 83.9375 25.0625C 83.7708 25.2292 83.4688 25.5312 83.0312 25.9688C 82.5938 26.3854 82.125 26.8438 81.625 27.3438C 81.1458 27.8229 80.6875 28.2812 80.25 28.7188C 79.8333 29.1562 79.5417 29.4688 79.375 29.6562C 79.0833 29.7188 78.8021 29.75 78.5312 29.75C 78.2812 29.7292 78.0833 29.5729 77.9375 29.2812ZM 95.25 29.6562C 96.1042 26.9062 96.875 24.7292 97.5625 23.125C 98.2708 21.5 98.8542 20.3646 99.3125 19.7188C 99.7917 19.0729 100.115 18.8646 100.281 19.0938C 100.448 19.3229 100.427 19.9062 100.219 20.8438C 100.031 21.7812 99.6146 23.0417 98.9688 24.625C 98.3438 26.1875 97.4583 27.9792 96.3125 30C 96.1458 30.0625 95.9479 30.0729 95.7188 30.0312C 95.4896 29.9896 95.3333 29.8646 95.25 29.6562ZM 100.719 14.625C 100.677 14.5208 100.656 14.3333 100.656 14.0625C 100.656 13.7917 100.677 13.625 100.719 13.5625C 101.198 13.3958 101.562 13.375 101.812 13.5C 102.062 13.625 102.219 13.8125 102.281 14.0625C 102.344 14.2917 102.333 14.5417 102.25 14.8125C 102.188 15.0833 102.073 15.2917 101.906 15.4375C 101.74 15.5625 101.542 15.5833 101.312 15.5C 101.104 15.3958 100.906 15.1042 100.719 14.625ZM 104.625 29.6562C 104.021 29.2188 103.625 28.6667 103.438 28C 103.271 27.3333 103.25 26.6146 103.375 25.8438C 103.5 25.0521 103.719 24.2396 104.031 23.4062C 104.365 22.5729 104.719 21.7708 105.094 21C 105.49 20.2292 105.865 19.5208 106.219 18.875C 106.594 18.2292 106.885 17.6979 107.094 17.2812C 107.156 17.1562 107.302 16.8542 107.531 16.375C 107.781 15.8958 108.042 15.375 108.312 14.8125C 108.583 14.25 108.833 13.7292 109.062 13.25C 109.312 12.75 109.469 12.4375 109.531 12.3125C 109.594 12.2083 109.677 12.0104 109.781 11.7188C 109.906 11.4062 110.042 11.0729 110.188 10.7188C 110.333 10.3646 110.49 10.0312 110.656 9.71875C 110.844 9.38542 111.031 9.14583 111.219 9C 111.427 8.85417 111.625 8.83333 111.812 8.9375C 112.021 9.04167 112.219 9.35417 112.406 9.875C 112.323 10.0833 112.115 10.5 111.781 11.125C 111.469 11.75 111.094 12.5 110.656 13.375C 110.219 14.25 109.729 15.2188 109.188 16.2812C 108.667 17.3438 108.156 18.4167 107.656 19.5C 107.156 20.5833 106.688 21.6458 106.25 22.6875C 105.812 23.7083 105.448 24.6458 105.156 25.5C 104.885 26.3333 104.719 27.0312 104.656 27.5938C 104.615 28.1354 104.719 28.4688 104.969 28.5938C 105.26 28.7396 105.635 28.8021 106.094 28.7812C 106.573 28.7396 107.062 28.6771 107.562 28.5938C 108.062 28.5104 108.552 28.4271 109.031 28.3438C 109.51 28.2396 109.927 28.1979 110.281 28.2188C 110.365 28.4062 110.302 28.5938 110.094 28.7812C 109.885 28.9479 109.594 29.1042 109.219 29.25C 108.844 29.375 108.406 29.4896 107.906 29.5938C 107.427 29.6771 106.958 29.7396 106.5 29.7812C 106.062 29.8229 105.667 29.8333 105.312 29.8125C 104.979 29.7917 104.75 29.7396 104.625 29.6562ZM 126.531 29.2812C 125.74 28.7396 125.167 28.0729 124.812 27.2812C 124.458 26.4688 124.198 25.6042 124.031 24.6875L 123.688 24.6875C 122 26.0625 120.531 27.0938 119.281 27.7812C 118.052 28.4688 117.01 28.8958 116.156 29.0625C 115.302 29.2083 114.635 29.1354 114.156 28.8438C 113.677 28.5521 113.365 28.1354 113.219 27.5938C 113.094 27.0312 113.125 26.375 113.312 25.625C 113.5 24.875 113.823 24.125 114.281 23.375C 114.74 22.6042 115.333 21.875 116.062 21.1875C 116.792 20.5 117.625 19.9375 118.562 19.5C 119.521 19.0625 120.573 18.7917 121.719 18.6875C 122.885 18.5625 124.135 18.6875 125.469 19.0625L 125.812 18.6875L 130.031 10.2188C 130.594 10.3021 130.927 10.5521 131.031 10.9688C 131.135 11.3854 131.125 11.8438 131 12.3438C 130.896 12.8438 130.729 13.3333 130.5 13.8125C 130.292 14.2708 130.135 14.6042 130.031 14.8125C 129.969 14.9375 129.844 15.1771 129.656 15.5312C 129.49 15.8854 129.281 16.3125 129.031 16.8125C 128.802 17.2917 128.552 17.8021 128.281 18.3438C 128.01 18.8854 127.75 19.4062 127.5 19.9062C 127.271 20.3854 127.062 20.8125 126.875 21.1875C 126.688 21.5417 126.573 21.7708 126.531 21.875C 126.156 22.6458 125.979 23.4688 126 24.3438C 126.042 25.1979 126.094 26.0208 126.156 26.8125C 126.24 27.1875 126.406 27.5 126.656 27.75C 126.906 27.9792 127.167 28.1979 127.438 28.4062C 127.729 28.5938 128.01 28.7812 128.281 28.9688C 128.573 29.1562 128.812 29.3854 129 29.6562C 128.917 29.9271 128.75 30.0625 128.5 30.0625C 128.25 30.0833 127.99 30.0417 127.719 29.9375C 127.448 29.8333 127.198 29.7083 126.969 29.5625C 126.74 29.4167 126.594 29.3229 126.531 29.2812ZM 114.875 27.875C 114.958 28.2292 115.271 28.3333 115.812 28.1875C 116.375 28.0417 117.031 27.7396 117.781 27.2812C 118.531 26.8021 119.323 26.2292 120.156 25.5625C 121.01 24.8958 121.771 24.2292 122.438 23.5625C 123.125 22.8958 123.656 22.2812 124.031 21.7188C 124.427 21.1562 124.552 20.7396 124.406 20.4688C 123.76 20.1146 123.042 19.9375 122.25 19.9375C 121.458 19.9375 120.667 20.0833 119.875 20.375C 119.104 20.6458 118.354 21.0417 117.625 21.5625C 116.917 22.0625 116.312 22.6458 115.812 23.3125C 115.333 23.9792 114.99 24.7083 114.781 25.5C 114.594 26.2708 114.625 27.0625 114.875 27.875ZM 131 29.6562C 130.958 29.6354 130.958 29.3958 131 28.9375C 131.062 28.4583 131.146 27.8646 131.25 27.1562C 131.354 26.4479 131.49 25.6667 131.656 24.8125C 131.823 23.9583 132 23.1458 132.188 22.375C 132.375 21.5833 132.573 20.8958 132.781 20.3125C 133.01 19.7083 133.229 19.2917 133.438 19.0625C 133.583 18.9167 133.729 18.9167 133.875 19.0625C 134.021 19.1875 134.167 19.3542 134.312 19.5625C 134.458 19.75 134.604 19.9271 134.75 20.0938C 134.896 20.2396 135.052 20.25 135.219 20.125C 135.802 19.3125 136.438 18.5417 137.125 17.8125C 137.833 17.0625 138.615 16.4167 139.469 15.875C 139.552 15.8125 139.781 15.7188 140.156 15.5938C 140.531 15.4479 140.958 15.3125 141.438 15.1875C 141.917 15.0417 142.406 14.9271 142.906 14.8438C 143.427 14.7396 143.865 14.6979 144.219 14.7188C 144.594 14.7188 144.844 14.8125 144.969 15C 145.115 15.1667 145.052 15.4583 144.781 15.875C 143.531 15.8958 142.365 16.2604 141.281 16.9688C 140.198 17.6771 139.198 18.5521 138.281 19.5938C 137.365 20.6354 136.531 21.7708 135.781 23C 135.031 24.2083 134.375 25.3333 133.812 26.375C 133.271 27.4167 132.812 28.2812 132.438 28.9688C 132.083 29.6562 131.823 30 131.656 30C 131.635 30 131.542 29.9583 131.375 29.875C 131.208 29.7708 131.083 29.6979 131 29.6562ZM 147.938 29.6562C 147.312 29.4479 146.833 29.1354 146.5 28.7188C 146.188 28.2812 145.979 27.8021 145.875 27.2812C 145.771 26.7604 145.75 26.2188 145.812 25.6562C 145.896 25.0729 146.021 24.5208 146.188 24C 146.812 23.3333 147.51 22.5729 148.281 21.7188C 149.073 20.8438 149.906 19.9896 150.781 19.1562C 151.656 18.3229 152.562 17.5521 153.5 16.8438C 154.458 16.1146 155.427 15.5625 156.406 15.1875C 156.74 15.0417 157 15.0521 157.188 15.2188C 157.396 15.3646 157.542 15.6042 157.625 15.9375C 157.708 16.2708 157.74 16.6562 157.719 17.0938C 157.719 17.5312 157.688 17.9583 157.625 18.375C 157.562 18.7917 157.479 19.1667 157.375 19.5C 157.271 19.8333 157.167 20.0625 157.062 20.1875C 156.812 20.4792 156.323 20.8229 155.594 21.2188C 154.885 21.6146 154.094 22.0521 153.219 22.5312C 152.344 22.9896 151.469 23.4688 150.594 23.9688C 149.719 24.4688 149 24.9688 148.438 25.4688C 147.875 25.9479 147.542 26.4271 147.438 26.9062C 147.333 27.3854 147.625 27.8229 148.312 28.2188C 149.021 28.3021 149.875 28.2708 150.875 28.125C 151.896 27.9583 152.927 27.75 153.969 27.5C 155.031 27.2292 156.052 26.9583 157.031 26.6875C 158.01 26.3958 158.812 26.1667 159.438 26L 159.812 26.3438C 159.354 26.9479 158.604 27.5 157.562 28C 156.521 28.5 155.396 28.9167 154.188 29.25C 152.979 29.5625 151.802 29.7708 150.656 29.875C 149.51 29.9583 148.604 29.8854 147.938 29.6562ZM 155.406 17.7188C 155.385 17.6979 155.229 17.7917 154.938 18C 154.646 18.1875 154.281 18.4479 153.844 18.7812C 153.427 19.0938 152.969 19.4479 152.469 19.8438C 151.99 20.2188 151.542 20.5729 151.125 20.9062C 150.729 21.2396 150.396 21.5312 150.125 21.7812C 149.854 22.0104 149.74 22.125 149.781 22.125C 150.115 22.1875 150.542 22.1458 151.062 22C 151.604 21.8333 152.156 21.6042 152.719 21.3125C 153.302 21.0208 153.854 20.6979 154.375 20.3438C 154.896 19.9688 155.302 19.6042 155.594 19.25C 155.906 18.8958 156.062 18.5833 156.062 18.3125C 156.083 18.0417 155.865 17.8438 155.406 17.7188ZM 171.062 29.6562C 171 28.9688 171.052 28.2917 171.219 27.625C 171.406 26.9375 171.646 26.2708 171.938 25.625C 172.25 24.9583 172.573 24.3021 172.906 23.6562C 173.26 22.9896 173.562 22.3438 173.812 21.7188C 174.062 21.0729 174.24 20.4479 174.344 19.8438C 174.448 19.2188 174.406 18.6042 174.219 18C 173.698 17.8125 173.094 17.8542 172.406 18.125C 171.74 18.3958 171.031 18.8125 170.281 19.375C 169.531 19.9167 168.75 20.5625 167.938 21.3125C 167.146 22.0417 166.365 22.7917 165.594 23.5625C 164.844 24.3125 164.125 25.0312 163.438 25.7188C 162.75 26.4062 162.125 26.9792 161.562 27.4375C 161.021 27.875 160.562 28.1562 160.188 28.2812C 159.812 28.3854 159.562 28.25 159.438 27.875C 159.417 27.8542 159.531 27.5938 159.781 27.0938C 160.052 26.5729 160.375 25.9271 160.75 25.1562C 161.146 24.3854 161.573 23.5521 162.031 22.6562C 162.51 21.7604 162.958 20.9271 163.375 20.1562C 163.792 19.3646 164.156 18.6979 164.469 18.1562C 164.781 17.6146 164.979 17.3229 165.062 17.2812C 165.5 17.5729 165.719 17.8958 165.719 18.25C 165.74 18.5833 165.688 18.9375 165.562 19.3125C 165.438 19.6667 165.292 20.0312 165.125 20.4062C 164.979 20.7812 164.958 21.1562 165.062 21.5312C 165.396 21.3021 165.854 20.9896 166.438 20.5938C 167.042 20.1771 167.688 19.75 168.375 19.3125C 169.083 18.875 169.812 18.4479 170.562 18.0312C 171.333 17.6146 172.052 17.2917 172.719 17.0625C 173.385 16.8125 173.979 16.6771 174.5 16.6562C 175.042 16.6354 175.438 16.7917 175.688 17.125C 175.938 17.4583 176.01 18.0104 175.906 18.7812C 175.823 19.5312 175.5 20.5625 174.938 21.875C 174.875 22.0208 174.719 22.375 174.469 22.9375C 174.24 23.4792 173.979 24.0729 173.688 24.7188C 173.417 25.3438 173.156 25.9375 172.906 26.5C 172.677 27.0417 172.531 27.3854 172.469 27.5312C 172.448 27.6146 172.417 27.7708 172.375 28C 172.354 28.2083 172.323 28.4479 172.281 28.7188C 172.24 28.9688 172.177 29.2188 172.094 29.4688C 172.01 29.6979 171.906 29.875 171.781 30C 171.656 30.125 171.51 30.1146 171.344 29.9688C 171.177 29.8021 171.083 29.6979 171.062 29.6562Z"/>
<path id="path2_fill" fill-rule="evenodd" d="M 9 6.5C 9 10.0896 6.98507 13 4.49966 13C 2.01425 13 0 10.0896 0 6.5C 0 2.91037 2.01425 0 4.49966 0C 6.98507 0 9 2.91037 9 6.5Z"/>
</defs>
</svg>
