<svg width="10" height="16" viewBox="0 0 10 16" version="1.1" xmlns="http://www.w3.org/2000/svg" xmlns:xlink="http://www.w3.org/1999/xlink">
<title>pin</title>
<desc>Created using Figma</desc>
<g id="Canvas" transform="translate(-5731 1810)">
<g id="pin">
<g id="Vector">
<use xlink:href="#path0_fill" transform="translate(5731.06 -1810)" fill="#FA0023"/>
</g>
<g id="Vector">
<use xlink:href="#path1_fill" transform="translate(5733.67 -1807.15)" fill="#FFFFFF"/>
</g>
<g id="Group" opacity="0.2">
<g id="Group" opacity="0.2">
<g id="Vector" opacity="0.2">
<use xlink:href="#path2_fill" transform="translate(5731 -1810)" fill="#25221D"/>
</g>
</g>
</g>
</g>
</g>
<defs>
<path id="path0_fill" d="M 9.34899 7.96717C 9.7562 7.14349 9.96001 6.21901 9.94051 5.28404C 9.921 4.34907 9.67886 3.43559 9.23773 2.63284C 8.79661 1.83009 8.17159 1.16552 7.42372 0.704052C 6.67586 0.242584 5.83072 -1.76848e-06 4.97089 -1.76848e-06C 4.11106 -1.76848e-06 3.26593 0.242584 2.51806 0.704052C 1.7702 1.16552 1.14517 1.83009 0.704049 2.63284C 0.262922 3.43559 0.020778 4.34907 0.00127741 5.28404C -0.0182232 6.21901 0.185585 7.14349 0.592789 7.96717L 4.3267 15.5805C 4.38986 15.7058 4.48282 15.8103 4.59587 15.8832C 4.70891 15.956 4.83787 15.9944 4.96925 15.9944C 5.10063 15.9944 5.22959 15.956 5.34263 15.8832C 5.45567 15.8103 5.54865 15.7058 5.6118 15.5805L 9.34899 7.96717Z"/>
<path id="path1_fill" d="M 4.71168 2.55761C 4.71255 3.0646 4.57512 3.56047 4.31678 3.98247C 4.05844 4.40448 3.69081 4.73364 3.26042 4.92831C 2.83002 5.12298 2.3562 5.1744 1.89893 5.07607C 1.44165 4.97774 1.02147 4.73407 0.691558 4.37591C 0.36165 4.01775 0.136844 3.56119 0.0455884 3.06401C -0.0456674 2.56683 0.000731692 2.05138 0.17891 1.58289C 0.357089 1.11441 0.659041 0.713935 1.04655 0.432168C 1.43406 0.150401 1.88971 8.74179e-07 2.35584 3.81377e-12C 2.97989 -1.17034e-06 3.57844 0.269308 4.02012 0.748816C 4.4618 1.22832 4.71052 1.87885 4.71168 2.55761Z"/>
<path id="path2_fill" d="M -1.06807e-06 5.40666C -1.06807e-06 2.4327 2.26288 0.0214111 5.06167 -1.45213e-06L 5.06167 15.9963C 4.9342 15.9908 4.81011 15.9502 4.70106 15.8782C 4.592 15.8062 4.50157 15.7052 4.43826 15.5847L 0.610289 7.9714C 0.210778 7.18732 0.0014975 6.30547 0.00218848 5.40904"/>
</defs>
</svg>
