<svg width="33" height="32" viewBox="0 0 33 32" version="1.1" xmlns="http://www.w3.org/2000/svg" xmlns:xlink="http://www.w3.org/1999/xlink">
<title>Group</title>
<desc>Created using Figma</desc>
<g id="Canvas" transform="translate(-6365 3171)">
<g id="Group">
<g id="001-user-silhouette">
<g id="Group">
<g id="Group">
<g id="Vector">
<mask id="mask0_outline_ins">
<use xlink:href="#path0_fill" fill="white" transform="translate(6374.1 -3171)"/>
</mask>
<g mask="url(#mask0_outline_ins)">
<use xlink:href="#path1_stroke_2x" transform="translate(6374.1 -3171)" fill="#FFFFFF"/>
</g>
</g>
<g id="Vector">
<mask id="mask1_outline_ins">
<use xlink:href="#path2_fill" fill="white" transform="translate(6365 -3153.67)"/>
</mask>
<g mask="url(#mask1_outline_ins)">
<use xlink:href="#path3_stroke_2x" transform="translate(6365 -3153.67)" fill="#FFFFFF"/>
</g>
</g>
</g>
</g>
</g>
</g>
</g>
<defs>
<path id="path0_fill" d="M 7.39901 16.9543C 11.4852 16.9543 14.798 13.1589 14.798 8.47711C 14.798 1.98473 11.4853 6.77609e-10 7.39901 6.77609e-10C 3.31254 6.77609e-10 1.87059e-07 1.98473 1.87059e-07 8.47711C 8.0839e-05 13.1589 3.31262 16.9543 7.39901 16.9543Z"/>
<path id="path1_stroke_2x" d="M 1.87059e-07 8.47711L -2 8.47711L -2 8.47714L 1.87059e-07 8.47711ZM 7.39901 18.9543C 12.8366 18.9543 16.798 13.9993 16.798 8.47711L 12.798 8.47711C 12.798 12.3185 10.1338 14.9543 7.39901 14.9543L 7.39901 18.9543ZM 16.798 8.47711C 16.798 4.91239 15.8858 2.18727 14.0283 0.373109C 12.1794 -1.4327 9.73643 -2 7.39901 -2L 7.39901 2C 9.14789 2 10.4045 2.42507 11.2335 3.23472C 12.0539 4.03602 12.798 5.54945 12.798 8.47711L 16.798 8.47711ZM 7.39901 -2C 5.06152 -2 2.61857 -1.43271 0.769639 0.37312C -1.08783 2.18729 -2 4.91242 -2 8.47711L 2 8.47711C 2 5.54942 2.7441 4.036 3.56452 3.2347C 4.39347 2.42507 5.65003 2 7.39901 2L 7.39901 -2ZM -2 8.47714C -1.9999 13.9993 1.96116 18.9543 7.39901 18.9543L 7.39901 14.9543C 4.66408 14.9543 2.00007 12.3186 2 8.47707L -2 8.47714Z"/>
<path id="path2_fill" d="M 32.8386 12.1038L 29.1057 3.87249C 28.935 3.49583 28.635 3.18344 28.2617 2.99318L 22.4685 0.0411826C 22.3407 -0.0237909 22.186 -0.0111586 22.0712 0.0739464C 20.4327 1.28705 18.5061 1.92826 16.5001 1.92826C 14.4937 1.92826 12.5673 1.28705 10.9288 0.0739464C 10.8136 -0.0111586 10.6589 -0.0237909 10.5312 0.0411826L 4.73835 2.99318C 4.36485 3.18344 4.06523 3.49567 3.89433 3.87249L 0.161432 12.1038C -0.095928 12.6712 -0.0431816 13.3205 0.302573 13.841C 0.648167 14.3614 1.23305 14.672 1.86722 14.672L 31.1327 14.672C 31.7668 14.672 32.3519 14.3612 32.6975 13.8409C 33.0431 13.3205 33.096 12.671 32.8386 12.1038Z"/>
<path id="path3_stroke_2x" d="M 32.8386 12.1038L 31.0172 12.9298L 31.0173 12.9301L 32.8386 12.1038ZM 29.1057 3.87249L 27.2841 4.69822L 27.2843 4.69852L 29.1057 3.87249ZM 28.2617 2.99318L 29.1698 1.21123L 29.1697 1.21119L 28.2617 2.99318ZM 22.4685 0.0411826L 23.3765 -1.74081L 23.3751 -1.74151L 22.4685 0.0411826ZM 22.0712 0.0739464L 23.2612 1.68135L 23.2619 1.68085L 22.0712 0.0739464ZM 10.9288 0.0739464L 12.1189 -1.53346L 12.1174 -1.53455L 10.9288 0.0739464ZM 10.5312 0.0411826L 9.62452 -1.74151L 9.6231 -1.74078L 10.5312 0.0411826ZM 4.73835 2.99318L 5.64616 4.77527L 5.64643 4.77514L 4.73835 2.99318ZM 3.89433 3.87249L 2.07291 3.0464L 2.07288 3.04646L 3.89433 3.87249ZM 0.161432 12.1038L 1.98287 12.9298L 1.98288 12.9298L 0.161432 12.1038ZM 0.302573 13.841L 1.96867 12.7346L 1.96851 12.7343L 0.302573 13.841ZM 32.6975 13.8409L 34.3635 14.9474L 34.3636 14.9473L 32.6975 13.8409ZM 34.6601 11.2777L 30.9272 3.04646L 27.2843 4.69852L 31.0172 12.9298L 34.6601 11.2777ZM 30.9273 3.04676C 30.5909 2.37426 29.8271 1.57748 29.1698 1.21123L 27.3536 4.77512C 27.3392 4.7678 27.3272 4.75873 27.3169 4.74795C 27.3065 4.73718 27.2946 4.72127 27.2841 4.69822L 30.9273 3.04676ZM 29.1697 1.21119L 23.3765 -1.74081L 21.5604 1.82317L 27.3537 4.77516L 29.1697 1.21119ZM 23.3751 -1.74151C 22.5758 -2.14803 21.6085 -2.07245 20.8804 -1.53295L 23.2619 1.68085C 22.7636 2.05013 22.1056 2.10044 21.5618 1.82387L 23.3751 -1.74151ZM 20.8811 -1.53346C 19.5103 -0.487587 18.1862 -0.0459912 16.5001 -0.0717438L 16.5001 3.92826C 18.826 3.9025 21.355 3.06168 23.2612 1.68135L 20.8811 -1.53346ZM 16.5001 -0.0717438C 14.8136 -0.0459872 13.4897 -0.487575 12.1189 -1.53346L 9.73873 1.68135C 11.645 3.06167 14.1737 3.9025 16.5001 3.92826L 16.5001 -0.0717438ZM 12.1174 -1.53455C 11.3907 -2.07149 10.4247 -2.14847 9.62452 -1.74151L 11.4378 1.82387C 10.8931 2.10089 10.2365 2.04917 9.7402 1.68244L 12.1174 -1.53455ZM 9.6231 -1.74078L 3.83027 1.21121L 5.64643 4.77514L 11.4393 1.82315L 9.6231 -1.74078ZM 3.83054 1.21108C 3.17274 1.57755 2.40926 2.37418 2.07291 3.0464L 5.71575 4.69858C 5.6968 4.74035 5.67132 4.76246 5.64616 4.77527L 3.83054 1.21108ZM 2.07288 3.04646L -1.66002 11.2777L 1.98288 12.9298L 5.71578 4.69852L 2.07288 3.04646ZM -1.66 11.2777C -2.20314 12.4753 -2.08933 13.8548 -1.36336 14.9476L 1.96851 12.7343C 1.98306 12.7562 1.99608 12.7889 1.99927 12.828C 2.00245 12.8672 1.99494 12.9032 1.98287 12.9298L -1.66 11.2777ZM -1.36352 14.9474C -0.640464 16.0362 0.575514 16.672 1.86722 16.672L 1.86722 12.672C 1.8906 12.672 1.9368 12.6866 1.96867 12.7346L -1.36352 14.9474ZM 1.86722 16.672L 31.1327 16.672L 31.1327 12.672L 1.86722 12.672L 1.86722 16.672ZM 31.1327 16.672C 32.4245 16.672 33.6405 16.036 34.3635 14.9474L 31.0315 12.7344C 31.0632 12.6865 31.1092 12.672 31.1327 12.672L 31.1327 16.672ZM 34.3636 14.9473C 35.0889 13.855 35.2034 12.4753 34.6599 11.2774L 31.0173 12.9301C 31.005 12.9029 30.9976 12.8668 31.0007 12.8278C 31.0039 12.7889 31.0168 12.7564 31.0314 12.7345L 34.3636 14.9473Z"/>
</defs>
</svg>
